<?xml version="1.0" encoding="UTF-8"?>
<svg width="235px" height="27px" viewBox="0 0 235 27" version="1.1" xmlns="http://www.w3.org/2000/svg" xmlns:xlink="http://www.w3.org/1999/xlink">
    <!-- Generator: Sketch 55.2 (78181) - https://sketchapp.com -->
    <title>JOBspider</title>
    <desc>Created with Sketch.</desc>
    <g id="Page-1" stroke="none" stroke-width="1" fill="none" fill-rule="evenodd">
        <g id="Home" transform="translate(-52.000000, -48.000000)" fill="#FFFFFF" fill-rule="nonzero">
            <g id="Top-Bar">
                <path d="M66.56,55.28 L59.504,55.28 L59.504,48.944 L73.112,48.944 L73.112,63.812 C73.112,66.0440112 72.6680044,67.9699919 71.78,69.59 C70.8919956,71.2100081 69.6740077,72.4399958 68.126,73.28 C66.5779923,74.1200042 64.8560095,74.54 62.96,74.54 C61.1359909,74.54 59.4500077,74.0840046 57.902,73.172 C56.3539923,72.2599954 55.1240046,71.0300077 54.212,69.482 C53.2999954,67.9339923 52.844,66.2480091 52.844,64.424 L59.396,64.424 C59.396,65.5280055 59.7139968,66.4519963 60.35,67.196 C60.9860032,67.9400037 61.844,68.312 62.924,68.312 C64.0760058,68.312 64.9699968,67.9460037 65.606,67.214 C66.2420032,66.4819963 66.56,65.4080071 66.56,63.992 L66.56,55.28 Z M79.52,58.7 C79.52,56.8279906 79.9879953,55.088008 80.924,53.48 C81.8600047,51.871992 83.125992,50.6000047 84.722,49.664 C86.318008,48.7279953 88.0639905,48.26 89.96,48.26 C91.8560095,48.26 93.601992,48.7279953 95.198,49.664 C96.794008,50.6000047 98.0599953,51.871992 98.996,53.48 C99.9320047,55.088008 100.4,56.8279906 100.4,58.7 L100.4,64.244 C100.4,66.1160094 99.9320047,67.855992 98.996,69.464 C98.0599953,71.072008 96.794008,72.3439953 95.198,73.28 C93.601992,74.2160047 91.8560095,74.684 89.96,74.684 C88.0639905,74.684 86.318008,74.2160047 84.722,73.28 C83.125992,72.3439953 81.8600047,71.072008 80.924,69.464 C79.9879953,67.855992 79.52,66.1160094 79.52,64.244 L79.52,58.7 Z M86.072,64.244 C86.072,65.3960058 86.4319964,66.3799959 87.152,67.196 C87.8720036,68.0120041 88.8079942,68.42 89.96,68.42 C91.0880056,68.42 92.0119964,68.0120041 92.732,67.196 C93.4520036,66.3799959 93.812,65.3960058 93.812,64.244 L93.812,58.664 C93.812,57.4879941 93.4520036,56.504004 92.732,55.712 C92.0119964,54.919996 91.0880056,54.524 89.96,54.524 C88.8079942,54.524 87.8720036,54.919996 87.152,55.712 C86.4319964,56.504004 86.072,57.4879941 86.072,58.664 L86.072,64.244 Z M118.364,48.944 C119.948008,48.944 121.207995,49.1839976 122.144,49.664 C123.272006,50.2400029 124.141997,51.031995 124.754,52.04 C125.366003,53.048005 125.672,54.1759938 125.672,55.424 C125.672,56.6000059 125.360003,57.685995 124.736,58.682 C124.111997,59.678005 123.260005,60.4639971 122.18,61.04 C123.476006,61.4960023 124.567996,62.2879944 125.456,63.416 C126.344004,64.5440056 126.788,65.8159929 126.788,67.232 C126.788,68.4800062 126.470003,69.6259948 125.834,70.67 C125.197997,71.7140052 124.352,72.535997 123.296,73.136 C122.767997,73.4240014 122.180003,73.6399993 121.532,73.784 C120.883997,73.9280007 120.020005,74 118.94,74 L107.852,74 L107.852,48.944 L118.364,48.944 Z M143.78,62.012 C141.73999,61.603998 140.078006,61.1540025 138.794,60.662 C137.509994,60.1699975 136.502004,59.4980043 135.77,58.646 C135.037996,57.7939957 134.672,56.6960067 134.672,55.352 C134.672,53.959993 135.037996,52.7360053 135.77,51.68 C136.502004,50.6239947 137.533993,49.8080029 138.866,49.232 C140.198007,48.6559971 141.739991,48.368 143.492,48.368 C145.172008,48.368 146.713993,48.7219965 148.118,49.43 C149.522007,50.1380035 150.631996,51.1279936 151.448,52.4 C152.264004,53.6720064 152.672,55.1239918 152.672,56.756 L151.34,56.756 C151.34,55.3399929 150.992003,54.0920054 150.296,53.012 C149.599997,51.9319946 148.652006,51.0980029 147.452,50.51 C146.251994,49.9219971 144.920007,49.628 143.456,49.628 C142.159994,49.628 140.948006,49.831998 139.82,50.24 C138.691994,50.648002 137.774004,51.2719958 137.066,52.112 C136.357996,52.9520042 136.004,54.0079936 136.004,55.28 C136.004,56.4320058 136.339997,57.3499966 137.012,58.034 C137.684003,58.7180034 138.559995,59.2399982 139.64,59.6 C140.720005,59.9600018 142.23199,60.343998 144.176,60.752 C146.14401,61.160002 147.673995,61.5499981 148.766,61.922 C149.858005,62.2940019 150.781996,62.9119957 151.538,63.776 C152.294004,64.6400043 152.672,65.8519922 152.672,67.412 C152.672,68.9720078 152.258004,70.2859947 151.43,71.354 C150.601996,72.4220053 149.504007,73.2199974 148.136,73.748 C146.767993,74.2760026 145.280008,74.54 143.672,74.54 C141.67999,74.54 139.928008,74.1680037 138.416,73.424 C136.903992,72.6799963 135.746004,71.6300068 134.942,70.274 C134.137996,68.9179932 133.736,67.3640088 133.736,65.612 L135.068,65.612 C135.068,67.1480077 135.409997,68.4919942 136.094,69.644 C136.778003,70.7960058 137.767994,71.6899968 139.064,72.326 C140.360006,72.9620032 141.895991,73.28 143.672,73.28 C145.880011,73.28 147.709993,72.7520053 149.162,71.696 C150.614007,70.6399947 151.34,69.2000091 151.34,67.376 C151.34,66.1279938 151.028003,65.1680034 150.404,64.496 C149.779997,63.8239966 148.994005,63.3380015 148.046,63.038 C147.097995,62.7379985 145.676009,62.3960019 143.78,62.012 Z M162.896,74 L161.564,74 L161.564,48.944 L171.644,48.944 C173.324008,48.944 174.877993,49.3039964 176.306,50.024 C177.734007,50.7440036 178.867996,51.7639934 179.708,53.084 C180.548004,54.4040066 180.968,55.9279914 180.968,57.656 C180.968,59.3120083 180.542004,60.835993 179.69,62.228 C178.837996,63.620007 177.680007,64.6879963 176.216,65.432 C174.943994,66.0800032 173.420009,66.404 171.644,66.404 L162.896,66.404 L162.896,74 Z M162.896,65.072 L171.644,65.072 C173.180008,65.072 174.439995,64.8320024 175.424,64.352 C176.696006,63.751997 177.715996,62.852006 178.484,61.652 C179.252004,60.451994 179.636,59.1200073 179.636,57.656 C179.636,56.2159928 179.252004,54.896006 178.484,53.696 C177.715996,52.495994 176.684006,51.596003 175.388,50.996 C174.403995,50.5159976 173.156008,50.276 171.644,50.276 L162.896,50.276 L162.896,65.072 Z M204.656,48.944 L204.656,50.276 L197.168,50.276 L197.168,72.668 L204.656,72.668 L204.656,74 L188.42,74 L188.42,72.668 L195.872,72.668 L195.872,50.276 L188.42,50.276 L188.42,48.944 L204.656,48.944 Z M222.908,48.944 C224.732009,48.944 226.417992,49.3999954 227.966,50.312 C229.514008,51.2240046 230.743995,52.4539923 231.656,54.002 C232.568005,55.5500077 233.024,57.2359909 233.024,59.06 L233.024,63.884 C233.024,65.7080091 232.568005,67.3939923 231.656,68.942 C230.743995,70.4900077 229.514008,71.7199954 227.966,72.632 C226.417992,73.5440046 224.732009,74 222.908,74 L213.656,74 L213.656,48.944 L222.908,48.944 Z M231.692,59.06 C231.692,57.4759921 231.296004,56.0120067 230.504,54.668 C229.711996,53.3239933 228.638007,52.256004 227.282,51.464 C225.925993,50.671996 224.456008,50.276 222.872,50.276 L214.988,50.276 L214.988,72.668 L222.872,72.668 C224.456008,72.668 225.925993,72.272004 227.282,71.48 C228.638007,70.687996 229.711996,69.6200067 230.504,68.276 C231.296004,66.9319933 231.692,65.4680079 231.692,63.884 L231.692,59.06 Z M241.16,48.944 L258.8,48.944 L258.8,50.276 L242.492,50.276 L242.492,60.428 L256.676,60.428 L256.676,61.76 L242.492,61.76 L242.492,72.668 L258.8,72.668 L258.8,74 L241.16,74 L241.16,48.944 Z M281.876,49.772 C283.316007,50.444 284.449996,51.4399934 285.278,52.76 C286.106004,54.0800066 286.52,55.543992 286.52,57.152 C286.52,59.0240094 285.950006,60.6979926 284.81,62.174 C283.669994,63.6500074 282.212009,64.6279976 280.436,65.108 L286.808,74 L285.224,74 L279.068,65.36 L277.916,65.396 L268.88,65.396 L268.88,74 L267.548,74 L267.548,48.944 L277.088,48.944 C278.144005,48.944 279.049996,49.0099993 279.806,49.142 C280.562004,49.2740007 281.251997,49.4839986 281.876,49.772 Z M278.276,64.064 C279.524006,64.064 280.675995,63.7520031 281.732,63.128 C282.788005,62.5039969 283.627997,61.6640053 284.252,60.608 C284.876003,59.5519947 285.188,58.4000062 285.188,57.152 C285.188,55.759993 284.822004,54.5000056 284.09,53.372 C283.357996,52.2439944 282.344006,51.4040028 281.048,50.852 C280.111995,50.4679981 278.792009,50.276 277.088,50.276 L268.88,50.276 L268.88,64.064 L278.276,64.064 Z" id="JOBspider"></path>
            </g>
        </g>
    </g>
</svg>